<svg id="svg" version="1.1" xmlns="http://www.w3.org/2000/svg" xmlns:xlink="http://www.w3.org/1999/xlink" width="400" height="640" viewBox="0, 0, 400,640"><g id="svgg"><path id="path0" d="M0.000 320.000 L 0.000 640.000 200.000 640.000 L 400.000 640.000 400.000 554.167 L 400.000 468.333 397.583 468.339 C 396.254 468.342,393.442 468.497,391.333 468.684 C 380.447 469.650,351.672 470.065,337.646 469.459 C 334.692 469.331,329.310 469.405,325.146 469.630 C 315.512 470.149,306.392 470.182,298.000 469.726 C 292.936 469.452,289.095 469.454,283.167 469.736 C 272.970 470.222,272.128 470.219,254.167 469.646 C 241.788 469.250,214.251 469.050,194.667 469.212 C 192.375 469.231,189.000 469.229,187.167 469.207 C 185.333 469.185,181.699 469.281,179.091 469.421 L 174.348 469.675 174.153 468.896 C 173.945 468.070,175.797 463.708,177.150 461.833 C 177.547 461.283,178.220 460.012,178.644 459.008 C 179.796 456.287,180.237 455.762,181.834 455.218 C 185.084 454.111,186.524 452.790,187.683 449.853 C 189.245 445.899,190.874 442.786,192.707 440.255 C 193.602 439.020,194.333 437.870,194.333 437.700 C 194.333 437.529,194.456 437.339,194.606 437.278 C 194.757 437.217,195.534 436.192,196.334 435.000 C 198.887 431.196,202.317 426.744,203.813 425.294 C 204.186 424.931,204.934 424.667,205.585 424.667 C 207.571 424.667,210.174 417.950,209.070 415.671 C 208.601 414.702,208.615 414.567,209.283 413.663 C 209.678 413.130,210.000 412.543,210.000 412.359 C 210.000 411.924,210.884 411.481,212.276 411.217 C 215.214 410.659,216.867 408.484,218.154 403.484 C 219.751 397.279,220.378 396.043,225.103 389.787 C 231.227 381.679,233.187 380.307,241.917 378.013 C 243.618 377.566,243.608 377.675,242.212 374.805 C 241.595 373.537,240.757 371.675,240.350 370.667 C 239.943 369.658,239.472 368.573,239.305 368.255 C 239.137 367.936,239.000 367.448,239.000 367.170 C 239.000 366.892,238.700 366.105,238.333 365.420 C 237.638 364.123,237.431 360.637,237.886 357.884 C 238.241 355.735,243.001 352.877,249.667 350.811 C 251.516 350.237,252.145 350.019,253.667 349.423 C 254.547 349.079,267.293 346.175,269.406 345.838 C 270.687 345.634,271.938 344.723,271.424 344.368 C 270.933 344.029,269.174 340.636,268.143 338.040 C 267.305 335.929,267.002 335.510,266.000 335.085 C 265.358 334.813,264.037 334.061,263.063 333.415 C 261.012 332.055,260.892 332.122,260.361 334.919 C 259.378 340.102,258.393 340.563,257.698 336.167 C 257.466 334.700,257.078 332.825,256.836 332.000 C 256.594 331.175,256.140 329.487,255.827 328.250 C 255.111 325.412,254.803 325.412,254.521 328.250 C 254.167 331.810,253.962 332.667,253.463 332.667 C 253.208 332.667,253.002 332.554,253.004 332.417 C 253.011 332.010,250.253 316.843,250.151 316.723 C 250.023 316.573,248.821 317.232,248.276 317.750 C 246.820 319.134,239.253 323.189,239.069 322.683 C 239.015 322.535,240.035 320.587,241.335 318.354 C 242.635 316.120,243.852 313.890,244.039 313.397 C 244.226 312.904,244.566 312.276,244.794 312.001 C 245.699 310.905,249.996 296.173,250.384 292.833 L 250.500 291.833 246.333 291.779 C 241.974 291.722,234.392 290.859,233.897 290.363 C 233.513 289.979,233.748 289.862,236.638 289.005 C 239.295 288.218,241.021 287.264,242.308 285.873 C 242.753 285.393,243.233 285.000,243.376 285.000 C 243.609 285.000,245.071 283.722,248.143 280.832 C 248.728 280.281,250.169 278.706,251.345 277.332 C 252.520 275.958,253.636 274.663,253.824 274.455 C 254.013 274.247,255.067 273.036,256.167 271.765 C 258.662 268.882,263.047 265.294,266.712 263.137 C 269.130 261.714,269.043 261.384,265.934 260.165 C 262.275 258.731,257.086 255.554,253.790 252.729 C 251.902 251.111,252.277 250.997,255.501 252.211 C 263.578 255.251,269.953 255.662,277.167 253.608 C 285.159 251.331,287.071 250.849,289.398 250.519 C 291.289 250.252,298.633 251.148,301.478 251.994 C 306.191 253.394,306.114 253.458,304.723 249.313 C 302.320 242.148,302.481 240.411,305.289 243.217 C 307.914 245.841,309.886 247.437,310.951 247.802 C 314.161 248.903,318.810 253.937,321.598 259.333 C 322.172 260.444,322.953 261.000,323.939 261.000 C 326.864 261.000,332.110 265.405,336.595 271.626 C 336.909 272.062,338.887 274.215,340.990 276.411 C 345.676 281.303,345.187 282.215,338.574 280.913 C 338.068 280.814,338.223 282.152,338.861 283.385 C 340.228 286.032,341.069 290.349,341.999 299.500 C 342.834 307.719,343.085 309.261,344.101 312.417 C 344.735 314.387,345.190 316.000,345.111 316.000 C 344.668 316.000,342.795 314.814,341.730 313.859 C 338.502 310.962,338.426 311.947,341.369 318.592 C 342.670 321.531,342.341 321.790,339.586 320.000 C 336.698 318.123,336.511 318.180,336.032 321.082 C 335.813 322.411,335.024 325.598,334.280 328.166 C 333.536 330.733,332.856 333.133,332.768 333.500 C 332.385 335.091,332.321 335.187,331.996 334.660 C 331.830 334.392,331.597 333.390,331.477 332.433 C 331.018 328.760,330.154 328.811,329.500 332.549 C 329.247 333.989,328.822 335.687,328.554 336.322 L 328.066 337.478 327.846 335.489 C 327.725 334.395,327.597 333.298,327.563 333.052 C 327.521 332.757,327.044 332.970,326.167 333.675 C 325.433 334.264,324.283 335.098,323.611 335.527 C 322.501 336.235,322.277 336.652,321.183 340.042 C 319.844 344.190,319.832 344.136,322.167 344.689 C 323.083 344.907,324.358 345.277,325.000 345.513 C 325.642 345.749,327.067 346.165,328.167 346.437 C 330.574 347.034,334.762 348.555,337.500 349.827 C 348.808 355.078,349.000 355.216,349.000 358.071 C 349.000 360.442,348.000 363.435,346.747 364.815 C 345.929 365.715,345.036 367.129,344.314 368.667 C 342.105 373.370,340.858 377.039,341.362 377.351 C 341.562 377.475,344.000 378.199,346.780 378.960 C 354.489 381.071,355.345 381.343,357.500 382.367 C 362.330 384.663,365.298 388.080,370.937 397.833 C 374.541 404.069,374.324 403.816,376.623 404.461 C 379.821 405.358,382.527 410.644,384.152 419.167 L 384.724 422.167 387.739 425.333 C 391.050 428.811,394.373 433.052,397.782 438.152 L 400.000 441.470 400.000 221.402 C 400.000 26.008,399.944 1.333,399.500 1.333 C 399.225 1.333,398.700 1.033,398.333 0.667 C 397.668 0.001,397.222 0.000,198.833 0.000 L 0.000 0.000 0.000 320.000 M306.770 390.833 C 306.552 391.069,306.477 391.377,306.603 391.518 C 306.730 391.659,306.637 391.660,306.398 391.522 C 305.745 391.145,304.333 391.606,304.333 392.195 C 304.333 392.534,304.133 392.649,303.750 392.530 C 303.429 392.430,302.942 392.505,302.667 392.696 C 302.283 392.963,302.350 392.992,302.956 392.820 C 303.538 392.656,303.706 392.716,303.595 393.048 C 303.512 393.297,303.158 393.556,302.807 393.624 C 302.456 393.691,301.811 394.029,301.373 394.374 C 300.935 394.718,300.384 395.000,300.149 395.000 C 299.914 395.000,299.635 395.188,299.528 395.417 C 299.374 395.746,299.293 395.747,299.141 395.422 C 298.993 395.106,298.710 395.133,297.925 395.539 C 297.363 395.829,297.046 396.165,297.222 396.284 C 297.652 396.576,297.628 398.098,297.187 398.448 C 296.973 398.618,297.055 398.659,297.396 398.550 C 297.979 398.363,301.777 400.036,302.154 400.646 C 302.285 400.858,302.135 400.919,301.767 400.804 C 301.197 400.626,301.196 400.635,301.757 400.995 C 302.081 401.204,302.666 401.273,303.057 401.149 C 303.613 400.972,303.724 401.036,303.567 401.445 C 303.422 401.824,303.514 401.910,303.905 401.760 C 304.247 401.628,304.360 401.687,304.216 401.920 C 304.080 402.140,304.459 402.456,305.161 402.710 C 305.806 402.943,306.348 403.291,306.367 403.484 C 306.385 403.676,306.504 403.458,306.632 403.000 C 306.815 402.340,307.079 402.167,307.897 402.167 C 308.465 402.167,309.227 401.898,309.590 401.569 C 309.953 401.241,310.456 401.016,310.708 401.069 C 310.960 401.123,311.126 400.969,311.076 400.728 C 311.024 400.477,311.238 400.321,311.576 400.363 C 311.901 400.404,312.589 400.264,313.105 400.052 C 313.621 399.840,314.157 399.667,314.297 399.667 C 314.436 399.667,314.893 399.303,315.311 398.857 C 315.729 398.412,316.279 398.128,316.533 398.225 C 316.787 398.323,317.089 398.155,317.205 397.854 C 317.485 397.124,317.048 396.720,316.654 397.343 C 316.423 397.708,316.342 397.570,316.338 396.806 C 316.336 396.240,316.412 395.699,316.508 395.603 C 316.863 395.248,318.333 395.762,318.333 396.241 C 318.333 396.557,318.525 396.664,318.861 396.536 C 319.151 396.424,319.451 396.333,319.527 396.333 C 320.228 396.333,319.327 395.502,317.917 394.848 C 315.351 393.659,312.618 392.327,311.667 391.802 C 310.767 391.307,308.853 391.159,309.129 391.606 C 309.222 391.757,308.867 391.816,308.339 391.739 C 307.726 391.649,307.440 391.442,307.546 391.166 C 307.782 390.553,307.243 390.321,306.770 390.833 M280.083 391.368 C 279.304 391.754,278.667 392.204,278.667 392.368 C 278.667 392.532,278.430 392.667,278.141 392.667 C 277.852 392.667,277.165 393.117,276.615 393.667 C 276.065 394.217,275.439 394.667,275.224 394.667 C 275.009 394.667,274.398 395.042,273.865 395.500 C 273.332 395.959,272.707 396.333,272.476 396.333 C 271.585 396.333,271.840 397.160,272.896 397.699 C 274.700 398.618,275.000 398.684,275.000 398.156 C 275.000 397.887,274.737 397.655,274.417 397.640 C 274.068 397.625,274.001 397.546,274.250 397.446 C 274.479 397.353,274.667 397.047,274.667 396.765 C 274.667 396.325,274.587 396.317,274.112 396.709 C 273.638 397.101,273.582 397.096,273.722 396.672 C 273.812 396.400,274.322 396.143,274.855 396.102 C 275.388 396.061,275.882 395.853,275.954 395.639 C 276.180 394.961,277.360 393.953,277.768 394.089 C 277.985 394.162,278.321 393.908,278.516 393.527 C 278.771 393.027,279.130 392.862,279.799 392.934 C 280.384 392.997,280.647 392.905,280.511 392.684 C 280.392 392.491,280.430 392.333,280.596 392.333 C 281.080 392.333,282.342 391.120,282.105 390.883 C 281.786 390.564,281.635 390.600,280.083 391.368 M293.664 397.170 C 293.329 397.574,293.349 397.667,293.773 397.667 C 294.395 397.667,294.802 397.123,294.377 396.860 C 294.211 396.758,293.890 396.897,293.664 397.170 M291.991 398.346 C 291.573 398.610,291.583 398.657,292.056 398.662 C 292.361 398.664,292.687 398.854,292.780 399.083 C 292.899 399.376,293.031 399.392,293.225 399.138 C 293.376 398.939,293.800 398.606,294.167 398.398 C 294.819 398.028,294.818 398.020,294.103 398.010 C 293.701 398.005,293.270 398.166,293.145 398.369 C 292.987 398.624,292.850 398.629,292.700 398.387 C 292.561 398.162,292.305 398.147,291.991 398.346 M277.000 399.667 C 277.000 399.850,277.234 400.000,277.520 400.000 C 277.815 400.000,277.941 400.159,277.811 400.369 C 277.656 400.620,277.822 400.662,278.333 400.500 C 278.911 400.317,279.023 400.366,278.822 400.714 C 278.678 400.963,278.679 401.059,278.824 400.928 C 278.969 400.797,279.365 400.838,279.703 401.019 C 280.198 401.284,280.279 401.247,280.118 400.827 C 280.008 400.540,279.841 400.381,279.748 400.475 C 279.654 400.568,279.202 400.350,278.744 399.989 C 277.847 399.283,277.000 399.127,277.000 399.667 M288.833 400.315 C 288.467 400.463,288.056 400.519,287.921 400.441 C 287.785 400.363,287.262 400.682,286.757 401.149 C 286.253 401.617,286.015 402.000,286.230 402.000 C 286.444 402.000,286.844 401.775,287.119 401.500 C 287.394 401.225,287.989 401.000,288.441 401.000 C 288.892 401.000,289.348 400.775,289.454 400.500 C 289.559 400.225,289.613 400.011,289.573 400.023 C 289.533 400.036,289.200 400.168,288.833 400.315 M283.833 402.190 C 282.404 402.931,282.197 403.220,282.953 403.418 C 283.406 403.536,283.564 403.454,283.451 403.159 C 283.273 402.696,284.273 402.241,285.036 402.438 C 285.291 402.504,285.387 402.494,285.248 402.417 C 285.109 402.340,285.081 402.139,285.184 401.972 C 285.462 401.522,284.965 401.603,283.833 402.190 M298.755 409.109 C 297.766 409.467,297.218 410.212,298.000 410.133 C 298.183 410.115,298.596 410.075,298.917 410.045 C 299.417 409.998,299.429 409.944,299.000 409.667 C 298.594 409.404,298.637 409.343,299.230 409.338 C 299.632 409.336,300.053 409.183,300.167 409.000 C 300.422 408.587,300.132 408.609,298.755 409.109 M291.510 409.650 C 291.391 409.843,291.464 410.000,291.671 410.000 C 292.337 410.000,292.832 410.803,292.870 411.945 C 292.891 412.556,292.797 412.877,292.662 412.659 C 292.499 412.395,292.345 412.378,292.203 412.608 C 291.928 413.052,292.467 413.389,293.077 413.155 C 293.386 413.036,293.498 412.636,293.403 411.987 C 293.281 411.159,293.371 411.000,293.962 411.000 C 294.350 411.000,294.667 410.886,294.667 410.747 C 294.667 410.332,293.333 409.627,292.972 409.851 C 292.788 409.964,292.432 409.887,292.182 409.679 C 291.868 409.419,291.658 409.410,291.510 409.650 M296.541 411.933 C 296.405 412.153,296.462 412.333,296.667 412.333 C 296.872 412.333,296.956 412.469,296.853 412.634 C 296.751 412.800,297.140 413.100,297.717 413.301 C 299.135 413.795,299.198 413.771,298.500 413.000 C 298.168 412.633,297.707 412.333,297.476 412.333 C 297.245 412.333,296.996 412.153,296.922 411.933 C 296.818 411.622,296.734 411.622,296.541 411.933 M290.840 413.659 C 290.513 414.021,290.091 414.223,289.904 414.107 C 289.709 413.987,289.665 414.061,289.802 414.282 C 289.932 414.493,289.855 414.667,289.631 414.667 C 289.406 414.667,289.312 414.756,289.421 414.866 C 289.721 415.166,291.667 413.920,291.667 413.428 C 291.667 412.851,291.540 412.886,290.840 413.659 M289.572 417.767 C 289.437 418.116,289.516 418.333,289.777 418.333 C 290.010 418.333,290.387 418.521,290.617 418.750 C 290.846 418.979,291.438 419.205,291.933 419.252 C 293.828 419.433,294.000 419.489,294.000 419.924 C 294.000 420.171,294.150 420.280,294.333 420.167 C 295.186 419.640,293.170 418.482,291.583 418.587 C 291.262 418.608,291.000 418.485,291.000 418.313 C 291.000 418.141,290.787 418.000,290.528 418.000 C 290.268 418.000,289.996 417.820,289.922 417.600 C 289.839 417.350,289.708 417.413,289.572 417.767 M300.000 417.594 C 300.000 417.758,299.389 418.095,298.643 418.341 C 297.896 418.588,297.083 419.078,296.836 419.431 C 296.589 419.784,296.225 419.972,296.027 419.850 C 295.829 419.727,295.667 419.769,295.667 419.941 C 295.667 420.114,296.037 420.326,296.490 420.413 C 296.943 420.500,297.247 420.463,297.166 420.333 C 297.085 420.202,297.692 419.749,298.514 419.326 C 300.260 418.428,300.865 417.829,300.350 417.510 C 300.157 417.391,300.000 417.429,300.000 417.594 M292.737 420.899 C 292.815 421.485,292.757 421.889,292.606 421.796 C 292.456 421.703,292.333 421.756,292.333 421.914 C 292.333 422.072,291.621 422.551,290.750 422.980 C 289.879 423.409,289.345 423.823,289.562 423.900 C 290.050 424.075,294.251 421.695,294.472 421.119 C 294.576 420.848,294.445 420.773,294.101 420.904 C 293.785 421.026,293.374 420.851,293.083 420.471 C 292.628 419.876,292.605 419.905,292.737 420.899 M296.998 421.334 C 296.672 421.536,296.855 421.791,297.694 422.302 C 298.485 422.783,298.874 422.873,298.967 422.597 C 299.040 422.379,298.925 422.142,298.711 422.070 C 298.497 421.999,298.123 421.742,297.881 421.500 C 297.620 421.239,297.262 421.172,296.998 421.334 M299.333 422.857 C 299.333 423.295,300.356 424.025,300.684 423.823 C 300.911 423.682,300.821 423.437,300.437 423.145 C 299.799 422.662,299.333 422.540,299.333 422.857 M397.333 459.500 C 397.078 459.807,397.053 460.000,397.268 460.000 C 397.460 460.000,397.686 460.262,397.770 460.583 C 397.854 460.904,397.940 460.679,397.961 460.083 C 398.005 458.863,397.924 458.788,397.333 459.500 M399.667 463.111 C 399.667 463.417,399.517 463.667,399.333 463.667 C 399.150 463.667,399.000 463.817,399.000 464.000 C 399.000 464.183,399.140 464.333,399.311 464.333 C 399.686 464.333,400.142 463.031,399.864 462.753 C 399.755 462.644,399.667 462.806,399.667 463.111 " stroke="none" fill="#33545b" fill-rule="evenodd"></path><path id="path1" d="M398.500 0.667 C 399.274 1.521,400.000 1.521,400.000 0.667 C 400.000 0.141,399.778 0.000,398.948 0.000 C 397.918 0.000,397.909 0.013,398.500 0.667 M306.555 292.222 C 306.433 292.345,306.333 293.078,306.333 293.852 C 306.333 296.579,304.580 304.148,302.263 311.426 C 300.857 315.840,300.355 316.680,300.956 313.610 C 301.446 311.111,301.573 307.249,301.167 307.226 C 299.795 307.148,296.680 313.881,295.335 319.833 C 294.267 324.555,294.398 324.311,293.525 323.225 C 292.285 321.681,290.050 317.248,288.673 313.601 C 287.964 311.721,287.245 310.137,287.075 310.080 C 286.663 309.943,285.755 313.003,285.467 315.500 L 285.235 317.500 284.645 315.333 C 283.904 312.612,282.426 301.711,282.127 296.761 C 282.003 294.704,281.787 293.093,281.646 293.179 C 280.310 294.005,276.715 303.289,274.166 312.500 C 272.942 316.920,272.935 316.920,271.846 312.588 C 270.690 307.994,270.568 307.836,269.320 309.333 C 267.160 311.924,264.360 318.953,262.052 327.579 L 261.049 331.325 262.247 332.312 C 263.258 333.146,264.559 333.883,266.932 334.969 C 267.170 335.078,267.848 336.370,268.439 337.840 C 270.603 343.224,273.355 346.749,278.291 350.458 L 281.500 352.870 281.429 357.252 C 281.301 365.091,278.430 374.859,277.168 371.750 C 276.508 370.127,275.044 365.692,274.829 364.667 C 274.438 362.801,273.060 360.333,272.411 360.335 C 272.093 360.336,270.333 360.570,268.500 360.854 C 261.669 361.912,241.006 361.054,239.206 359.638 C 237.969 358.665,237.905 358.788,238.066 361.846 C 238.243 365.213,238.326 365.325,241.691 366.711 C 246.735 368.788,251.682 369.101,262.000 367.996 C 269.746 367.166,269.281 367.150,269.520 368.250 C 270.392 372.251,274.004 379.966,277.830 386.000 C 280.745 390.596,280.733 390.585,281.854 389.850 C 282.808 389.225,283.281 389.340,285.333 390.692 C 285.792 390.994,286.717 391.419,287.390 391.637 C 288.063 391.856,288.794 392.251,289.014 392.517 C 289.235 392.783,289.616 393.000,289.862 393.000 C 290.108 393.000,291.458 393.697,292.861 394.549 L 295.412 396.097 296.456 395.490 C 297.030 395.156,297.800 394.721,298.167 394.525 C 298.533 394.328,298.908 394.081,299.000 393.977 C 299.092 393.873,300.991 392.776,303.221 391.539 L 307.274 389.290 308.669 390.001 C 309.437 390.393,310.252 390.641,310.482 390.553 C 311.478 390.171,319.143 375.720,321.673 369.453 L 322.768 366.740 330.967 366.572 C 345.637 366.271,347.898 365.282,348.536 358.894 L 348.763 356.621 347.530 357.458 C 342.686 360.746,328.260 362.190,318.494 360.365 L 317.007 360.087 316.511 361.794 C 316.238 362.732,315.518 365.513,314.910 367.972 C 313.602 373.268,313.160 373.812,311.637 372.007 C 309.980 370.045,308.699 365.448,307.676 357.801 C 307.223 354.413,307.188 354.488,310.151 352.558 C 312.479 351.042,317.122 346.580,319.058 344.000 C 319.539 343.358,320.394 341.330,320.958 339.492 L 321.982 336.150 324.849 334.065 C 327.461 332.166,327.699 331.900,327.530 331.074 C 327.429 330.575,327.185 328.817,326.989 327.167 C 326.793 325.517,326.570 323.867,326.493 323.500 C 323.958 311.358,319.555 300.000,317.384 300.000 C 316.982 300.000,316.333 302.364,316.333 303.829 C 316.333 305.754,314.557 303.724,309.264 295.748 C 307.897 293.687,306.678 292.100,306.555 292.222 M281.833 392.482 C 281.467 392.728,279.838 393.786,278.214 394.833 C 275.738 396.429,275.334 396.809,275.714 397.182 C 276.665 398.118,282.840 401.666,283.487 401.649 C 284.712 401.618,293.166 397.143,292.638 396.806 C 291.517 396.089,283.156 392.002,282.844 392.017 C 282.655 392.027,282.200 392.236,281.833 392.482 M293.833 399.320 C 293.100 399.657,291.300 400.464,289.833 401.113 C 288.367 401.762,286.314 402.677,285.271 403.146 C 282.715 404.298,282.748 404.305,278.933 401.789 C 277.089 400.573,275.382 399.561,275.141 399.539 C 274.589 399.490,270.527 404.278,266.732 409.449 C 261.128 417.085,243.832 438.546,241.344 440.948 C 235.718 446.384,228.516 449.038,216.333 450.168 C 191.811 452.442,179.353 457.241,175.443 465.920 C 173.720 469.745,173.631 469.674,179.667 469.274 C 182.142 469.111,187.017 469.019,190.500 469.072 C 204.270 469.278,218.222 469.025,218.222 468.568 C 218.222 468.062,224.117 458.849,225.139 457.757 C 225.649 457.212,226.595 456.881,228.683 456.517 C 233.872 455.612,239.192 453.535,242.315 451.194 C 242.946 450.721,243.551 450.333,243.660 450.333 C 244.613 450.333,247.177 457.941,248.490 464.667 C 248.795 466.225,249.119 467.762,249.211 468.083 C 249.368 468.629,248.698 468.671,238.772 468.729 L 228.167 468.791 236.167 469.014 C 240.567 469.136,250.842 469.421,259.000 469.648 C 270.765 469.974,275.419 469.974,281.500 469.648 C 286.837 469.362,291.243 469.328,296.000 469.535 C 302.909 469.837,310.630 469.857,330.333 469.627 C 336.292 469.557,347.767 469.556,355.833 469.626 C 370.207 469.749,384.863 469.337,388.833 468.700 C 389.933 468.523,392.896 468.275,395.417 468.149 L 400.000 467.920 400.000 466.279 C 400.000 464.554,399.063 463.993,398.657 465.475 C 398.152 467.319,397.667 466.283,397.667 463.361 C 397.667 459.873,397.711 459.910,395.628 461.667 C 393.886 463.136,393.667 463.230,393.667 462.511 C 393.667 462.241,395.092 460.875,396.833 459.474 L 400.000 456.927 400.000 451.847 L 400.000 446.767 397.917 445.890 C 389.683 442.424,379.872 440.602,365.333 439.838 C 355.003 439.296,351.405 438.329,346.833 434.868 C 341.583 430.893,326.058 414.634,316.629 403.236 C 313.784 399.797,314.350 399.910,311.317 402.179 C 307.925 404.717,308.152 404.719,302.809 402.103 C 298.195 399.843,295.569 398.648,295.305 398.687 C 295.229 398.699,294.567 398.984,293.833 399.320 M296.527 409.508 C 297.365 409.223,298.495 408.761,299.036 408.482 C 301.142 407.392,301.262 408.921,299.167 410.149 C 297.258 411.268,297.282 411.684,299.333 413.000 C 301.103 414.135,301.221 414.312,300.618 414.915 C 300.331 415.202,299.624 414.961,297.774 413.946 C 295.012 412.430,294.934 412.436,291.569 414.400 C 288.701 416.074,287.594 415.091,290.352 413.321 C 292.504 411.941,292.500 411.264,290.333 410.167 C 288.602 409.289,288.420 409.047,289.031 408.436 C 289.295 408.172,290.170 408.341,292.198 409.049 C 294.922 409.998,295.044 410.011,296.527 409.508 M292.000 418.037 C 294.111 419.006,296.182 419.006,298.250 418.038 C 300.490 416.990,302.188 417.681,300.148 418.810 C 297.276 420.399,297.216 420.582,299.165 421.814 C 302.374 423.843,301.653 425.229,298.412 423.262 C 295.501 421.496,295.550 421.497,292.489 423.125 C 290.494 424.187,289.627 424.493,289.364 424.230 C 288.775 423.642,288.913 423.444,290.667 422.365 C 291.690 421.735,292.333 421.103,292.333 420.727 C 292.333 420.318,291.779 419.854,290.667 419.333 C 289.110 418.604,288.690 418.088,289.222 417.556 C 289.602 417.176,290.442 417.321,292.000 418.037 M351.167 447.267 C 352.450 447.720,355.499 448.432,357.943 448.849 C 360.386 449.266,362.426 449.659,362.476 449.721 C 362.526 449.783,363.337 450.987,364.280 452.396 C 366.191 455.255,372.295 463.797,374.539 466.750 L 375.994 468.667 359.348 468.667 L 342.701 468.667 342.157 466.917 L 341.614 465.167 343.276 459.833 C 344.191 456.900,345.411 452.925,345.987 451.000 C 347.437 446.156,347.566 445.883,348.258 446.189 C 348.574 446.328,349.883 446.813,351.167 447.267 M399.060 458.953 C 398.342 459.496,398.303 459.691,398.524 461.643 C 398.715 463.335,398.829 463.625,399.102 463.124 C 399.290 462.781,399.577 462.411,399.740 462.302 C 399.903 462.194,399.991 461.264,399.935 460.236 L 399.833 458.367 399.060 458.953 M190.500 463.528 C 189.583 463.785,188.608 463.947,188.333 463.888 C 188.058 463.830,188.508 463.622,189.333 463.426 C 191.539 462.904,192.441 462.983,190.500 463.528 M183.608 466.591 C 181.766 468.622,181.690 468.667,180.100 468.667 C 178.227 468.667,178.361 468.483,181.500 466.739 C 184.055 465.319,184.810 465.267,183.608 466.591 " stroke="none" fill="#e9dcc0" fill-rule="evenodd"></path><path id="path2" d="M304.000 244.233 C 304.000 245.206,305.563 250.621,306.001 251.167 C 306.380 251.639,306.525 253.094,306.237 253.556 C 306.059 253.842,305.313 253.743,303.414 253.183 C 296.760 251.219,288.524 250.444,286.300 251.573 C 285.515 251.971,282.301 252.842,275.333 254.546 C 270.026 255.843,261.442 255.210,256.535 253.160 C 254.484 252.303,254.795 252.786,257.614 254.836 C 260.493 256.930,265.338 259.593,267.588 260.318 C 270.118 261.134,270.026 261.603,266.963 263.501 C 263.259 265.797,257.590 270.620,255.886 272.928 C 250.689 279.963,241.999 287.729,237.702 289.176 C 234.182 290.361,238.536 291.333,247.369 291.333 C 251.753 291.333,251.553 290.713,249.648 298.387 C 247.314 307.793,245.998 311.263,242.339 317.656 C 241.419 319.264,240.667 320.674,240.667 320.790 C 240.667 321.730,244.100 320.039,248.640 316.863 C 250.524 315.546,250.529 315.557,251.875 323.204 C 253.322 331.424,253.461 331.653,254.333 327.256 C 254.762 325.090,255.180 324.611,255.660 325.731 C 256.105 326.768,257.991 334.330,258.013 335.167 C 258.022 335.533,258.230 336.283,258.475 336.833 C 258.971 337.947,258.883 338.086,260.009 334.417 C 260.417 333.087,260.816 332.000,260.897 332.000 C 260.978 332.000,261.371 332.167,261.772 332.371 L 262.500 332.742 261.784 331.998 L 261.068 331.253 262.061 327.543 C 264.360 318.954,267.164 311.920,269.320 309.333 C 270.568 307.836,270.690 307.994,271.846 312.588 C 272.935 316.920,272.942 316.920,274.166 312.500 C 276.715 303.289,280.310 294.005,281.646 293.179 C 281.787 293.093,282.003 294.704,282.127 296.761 C 282.426 301.711,283.904 312.612,284.645 315.333 L 285.235 317.500 285.467 315.500 C 285.755 313.003,286.663 309.943,287.075 310.080 C 287.245 310.137,287.964 311.721,288.673 313.601 C 290.050 317.248,292.285 321.681,293.525 323.225 C 294.398 324.311,294.267 324.555,295.335 319.833 C 296.697 313.807,300.011 306.713,301.174 307.333 C 301.557 307.537,301.430 311.191,300.956 313.610 C 300.355 316.680,300.857 315.840,302.263 311.426 C 304.580 304.148,306.333 296.579,306.333 293.852 C 306.333 291.594,306.639 291.792,309.264 295.748 C 314.557 303.724,316.333 305.754,316.333 303.829 C 316.333 302.364,316.982 300.000,317.384 300.000 C 318.385 300.000,322.044 306.999,323.658 312.000 C 325.821 318.703,328.061 331.285,327.263 332.250 C 327.012 332.554,327.065 332.667,327.459 332.667 C 327.778 332.667,328.000 332.941,328.000 333.333 C 328.000 334.623,328.563 333.979,329.093 332.083 C 330.069 328.595,330.923 328.177,331.664 330.825 C 331.897 331.654,332.205 332.333,332.350 332.333 C 332.670 332.333,333.556 329.664,333.844 327.833 C 333.959 327.100,334.262 325.946,334.516 325.269 C 334.771 324.592,335.155 322.666,335.370 320.990 C 335.829 317.411,335.967 317.305,338.418 318.650 C 340.970 320.051,341.434 319.478,340.009 316.684 C 338.811 314.336,337.955 311.333,338.484 311.333 C 338.939 311.333,340.682 312.298,341.942 313.247 C 343.739 314.601,345.113 314.006,343.708 312.483 C 342.884 311.591,342.273 308.002,341.498 299.500 C 340.877 292.689,340.473 289.716,340.002 288.500 C 339.647 287.583,339.252 286.387,339.124 285.841 C 338.995 285.296,338.465 283.912,337.945 282.765 C 337.425 281.619,337.000 280.603,337.000 280.507 C 337.000 280.165,340.541 280.341,340.900 280.700 C 341.113 280.913,341.686 280.976,342.264 280.848 C 343.787 280.514,343.320 279.612,339.773 276.029 C 338.065 274.304,336.667 272.785,336.667 272.655 C 336.667 272.262,333.529 268.464,331.879 266.860 C 331.029 266.034,330.333 265.203,330.333 265.012 C 330.333 264.822,330.166 264.667,329.961 264.667 C 329.756 264.667,329.093 264.232,328.488 263.701 C 327.374 262.723,324.163 261.333,323.017 261.333 C 322.398 261.333,320.667 259.582,320.667 258.956 C 320.667 258.222,315.632 251.363,314.852 251.034 C 314.679 250.961,314.197 250.560,313.780 250.143 C 313.363 249.726,312.732 249.293,312.377 249.181 C 311.306 248.841,307.937 246.495,306.181 244.866 C 304.263 243.087,304.000 243.011,304.000 244.233 M324.500 334.333 C 323.950 334.698,323.650 334.993,323.833 334.990 C 324.168 334.985,325.980 333.686,325.667 333.676 C 325.575 333.673,325.050 333.969,324.500 334.333 M266.583 335.010 C 266.996 335.176,267.333 335.492,267.333 335.711 C 267.333 335.931,267.430 336.015,267.548 335.897 C 267.872 335.572,266.992 334.664,266.376 334.688 C 266.009 334.702,266.076 334.806,266.583 335.010 M321.364 338.030 C 321.138 338.783,321.015 339.460,321.090 339.535 C 321.165 339.610,321.411 339.055,321.636 338.303 C 321.862 337.551,321.985 336.874,321.910 336.799 C 321.835 336.724,321.589 337.278,321.364 338.030 M319.207 343.819 C 317.920 345.783,312.466 351.050,310.172 352.544 C 307.186 354.490,307.223 354.411,307.676 357.801 C 308.699 365.448,309.980 370.045,311.637 372.007 C 313.160 373.812,313.602 373.268,314.910 367.972 C 315.518 365.513,316.238 362.733,316.510 361.795 L 317.006 360.091 318.419 360.364 C 320.338 360.735,321.778 360.734,320.833 360.362 C 317.313 358.975,316.594 359.466,315.505 364.000 C 314.206 369.412,313.317 372.333,312.970 372.333 C 311.251 372.333,308.663 364.243,308.119 357.167 L 307.906 354.389 310.366 352.812 C 313.905 350.544,317.948 346.514,319.791 343.417 C 320.250 342.647,319.749 342.991,319.207 343.819 M272.282 345.199 C 273.133 346.471,276.947 350.068,278.607 351.165 C 281.128 352.830,281.001 352.526,280.988 356.870 C 280.972 362.556,279.768 368.600,278.275 370.499 L 277.583 371.378 276.782 369.439 C 276.341 368.373,275.820 366.775,275.623 365.889 C 275.427 365.002,274.830 363.315,274.296 362.139 L 273.327 360.000 271.747 360.033 C 270.878 360.052,269.792 360.197,269.333 360.358 C 268.783 360.550,269.258 360.587,270.732 360.466 L 272.964 360.284 273.774 361.892 C 274.220 362.776,274.695 364.025,274.829 364.667 C 275.044 365.692,276.508 370.127,277.168 371.750 C 278.431 374.860,281.301 365.090,281.429 357.248 L 281.500 352.862 278.500 350.625 C 276.850 349.395,274.621 347.439,273.546 346.278 C 272.471 345.117,271.902 344.631,272.282 345.199 M347.379 357.112 C 347.176 357.357,346.370 357.759,345.588 358.005 C 344.806 358.252,344.017 358.558,343.833 358.686 C 343.525 358.901,340.625 359.586,337.000 360.300 C 336.062 360.485,335.821 360.609,336.355 360.631 C 339.221 360.751,347.401 358.239,348.164 357.005 C 348.473 356.504,347.808 356.594,347.379 357.112 M348.721 357.667 C 348.687 358.125,348.582 359.100,348.488 359.833 C 348.338 360.995,348.362 361.061,348.674 360.345 C 348.870 359.893,348.976 358.918,348.907 358.179 C 348.839 357.439,348.755 357.208,348.721 357.667 M239.059 359.571 C 239.466 360.061,241.812 360.755,242.552 360.603 C 242.828 360.546,242.076 360.195,240.880 359.823 C 239.446 359.377,238.826 359.291,239.059 359.571 M237.767 361.667 C 237.767 362.675,237.829 363.087,237.905 362.583 C 237.982 362.079,237.982 361.254,237.905 360.750 C 237.829 360.246,237.767 360.658,237.767 361.667 M253.979 361.072 C 259.925 361.247,265.625 361.265,266.645 361.112 C 267.845 360.932,264.028 360.819,255.833 360.793 L 243.167 360.753 253.979 361.072 M325.286 361.059 C 327.330 361.236,330.050 361.236,331.953 361.059 C 334.897 360.784,334.607 360.759,328.500 360.759 C 322.216 360.759,322.032 360.776,325.286 361.059 M347.113 363.518 C 346.597 364.310,346.534 364.569,346.889 364.433 C 347.328 364.264,348.164 362.701,347.926 362.494 C 347.875 362.450,347.509 362.911,347.113 363.518 M238.039 364.198 C 238.017 364.582,238.338 365.182,238.750 365.532 C 239.494 366.161,239.495 366.161,238.951 365.500 C 238.649 365.133,238.329 364.533,238.240 364.167 C 238.084 363.525,238.076 363.527,238.039 364.198 M322.528 367.214 C 322.213 368.035,322.485 368.087,323.165 367.335 C 323.676 366.770,323.690 366.667,323.254 366.667 C 322.970 366.667,322.643 366.913,322.528 367.214 M266.000 367.667 L 265.167 367.934 266.083 367.967 C 266.587 367.985,267.000 367.850,267.000 367.667 C 267.000 367.483,266.962 367.348,266.917 367.367 C 266.871 367.385,266.458 367.520,266.000 367.667 M268.926 368.312 C 269.579 369.449,269.838 369.394,269.534 368.182 C 269.417 367.715,269.105 367.333,268.842 367.333 C 268.446 367.333,268.460 367.501,268.926 368.312 M321.167 370.667 C 321.042 371.061,321.014 371.459,321.106 371.550 C 321.197 371.642,321.375 371.394,321.500 371.000 C 321.625 370.606,321.653 370.208,321.561 370.116 C 321.469 370.025,321.292 370.272,321.167 370.667 M274.024 379.833 C 274.024 380.017,274.238 380.542,274.500 381.000 C 274.762 381.458,274.976 381.683,274.976 381.500 C 274.976 381.317,274.762 380.792,274.500 380.333 C 274.238 379.875,274.024 379.650,274.024 379.833 M315.861 381.548 C 315.544 382.375,315.894 382.488,316.318 381.695 C 316.523 381.313,316.551 381.000,316.381 381.000 C 316.211 381.000,315.977 381.246,315.861 381.548 M312.737 387.145 C 312.179 388.370,312.232 388.626,312.858 387.732 C 313.147 387.320,313.329 386.820,313.262 386.620 C 313.196 386.421,312.960 386.657,312.737 387.145 M281.833 389.860 C 281.467 390.138,280.883 390.291,280.535 390.201 C 280.057 390.077,279.998 390.131,280.290 390.423 C 280.582 390.716,280.937 390.710,281.755 390.400 C 282.929 389.953,285.164 390.902,292.500 394.961 L 295.500 396.620 297.333 395.587 C 298.342 395.019,300.435 393.792,301.986 392.860 C 306.309 390.264,307.183 389.976,308.860 390.598 C 310.237 391.108,311.333 390.994,311.333 390.341 C 311.333 390.112,311.129 390.122,310.731 390.370 C 310.256 390.667,309.830 390.594,308.702 390.018 L 307.274 389.290 303.221 391.539 C 300.991 392.776,299.092 393.873,299.000 393.977 C 298.908 394.081,298.533 394.328,298.167 394.525 C 297.800 394.721,297.030 395.156,296.456 395.490 L 295.412 396.097 292.861 394.549 C 291.458 393.697,290.108 393.000,289.862 393.000 C 289.616 393.000,289.235 392.783,289.014 392.517 C 288.794 392.251,288.063 391.857,287.390 391.640 C 286.717 391.424,286.017 391.132,285.833 390.992 C 283.919 389.531,282.716 389.191,281.833 389.860 M281.833 392.061 C 281.074 392.487,278.108 394.365,276.250 395.596 C 274.278 396.902,274.129 396.729,280.863 400.940 C 283.183 402.391,283.643 402.321,288.720 399.738 C 292.892 397.615,293.868 396.787,292.667 396.390 C 292.264 396.257,292.245 396.320,292.567 396.710 C 292.986 397.219,284.761 401.667,283.401 401.667 C 282.810 401.667,276.575 398.030,275.714 397.182 C 275.275 396.751,277.501 395.065,281.908 392.494 L 282.983 391.866 286.908 393.840 C 291.631 396.216,291.595 396.200,291.167 395.740 C 290.660 395.197,283.571 391.673,283.000 391.680 C 282.725 391.684,282.200 391.855,281.833 392.061 M294.722 398.625 C 294.421 398.816,294.583 398.903,295.222 398.893 C 295.742 398.886,296.467 398.992,296.833 399.129 C 297.244 399.283,297.180 399.183,296.667 398.868 C 295.706 398.279,295.341 398.233,294.722 398.625 M274.195 399.547 C 274.022 399.998,274.071 400.022,274.478 399.685 C 275.041 399.218,274.803 399.104,279.060 401.889 C 282.245 403.973,283.159 404.444,282.247 403.533 C 279.878 401.164,274.581 398.541,274.195 399.547 M312.299 400.824 C 311.676 401.277,310.639 402.006,309.995 402.445 C 309.351 402.884,308.601 403.513,308.328 403.843 C 307.596 404.729,308.982 403.959,311.333 402.170 C 312.342 401.404,313.467 400.606,313.833 400.398 C 314.352 400.104,314.382 400.018,313.966 400.010 C 313.672 400.005,312.922 400.371,312.299 400.824 M316.401 402.985 C 316.861 403.721,317.185 403.630,316.885 402.848 C 316.776 402.565,316.532 402.333,316.341 402.333 C 316.122 402.333,316.144 402.572,316.401 402.985 M322.667 410.167 C 323.097 410.625,323.505 411.000,323.574 411.000 C 323.851 411.000,322.477 409.353,322.192 409.344 C 322.022 409.338,322.236 409.708,322.667 410.167 M291.117 410.542 C 291.850 410.939,292.032 411.238,291.915 411.851 C 291.831 412.289,291.891 412.567,292.048 412.470 C 292.891 411.949,291.651 409.969,290.509 410.013 C 290.321 410.021,290.594 410.258,291.117 410.542 M297.733 410.733 C 297.248 411.219,297.215 411.888,297.663 412.164 C 297.852 412.281,297.907 412.146,297.792 411.846 C 297.682 411.560,297.777 411.102,298.004 410.829 C 298.496 410.236,298.300 410.167,297.733 410.733 M260.667 416.833 C 260.431 417.117,260.313 417.424,260.405 417.516 C 260.497 417.608,260.764 417.451,261.000 417.167 C 261.236 416.883,261.353 416.576,261.262 416.484 C 261.170 416.392,260.902 416.549,260.667 416.833 M298.333 418.000 C 297.692 418.351,297.287 418.645,297.433 418.653 C 297.786 418.671,299.667 417.694,299.667 417.491 C 299.667 417.273,299.647 417.281,298.333 418.000 M291.583 419.740 C 292.414 420.141,292.555 420.952,291.917 421.667 C 291.562 422.065,291.587 422.069,292.083 421.693 C 293.122 420.907,292.427 419.246,291.105 419.356 C 290.956 419.368,291.171 419.541,291.583 419.740 M337.326 426.160 C 338.132 426.981,338.860 427.585,338.943 427.501 C 339.132 427.312,336.513 424.667,336.136 424.667 C 335.985 424.667,336.521 425.339,337.326 426.160 M249.333 430.833 C 249.098 431.117,248.980 431.424,249.072 431.516 C 249.163 431.608,249.431 431.451,249.667 431.167 C 249.902 430.883,250.020 430.576,249.928 430.484 C 249.837 430.392,249.569 430.549,249.333 430.833 M348.333 435.807 C 348.333 435.973,350.982 437.496,351.750 437.770 C 352.958 438.203,352.262 437.673,350.333 436.693 C 349.233 436.134,348.333 435.735,348.333 435.807 M372.256 440.242 C 372.855 440.316,373.755 440.314,374.256 440.238 C 374.757 440.162,374.267 440.101,373.167 440.103 C 372.067 440.105,371.657 440.167,372.256 440.242 M236.212 444.534 C 235.321 445.157,234.708 445.667,234.850 445.667 C 235.155 445.667,238.333 443.658,238.333 443.465 C 238.333 443.167,237.748 443.462,236.212 444.534 M396.999 445.459 C 397.458 445.726,397.895 445.883,397.972 445.806 C 398.179 445.599,397.928 445.441,397.000 445.194 L 396.167 444.972 396.999 445.459 M347.566 446.212 C 347.129 446.649,347.332 446.938,347.961 446.773 C 348.306 446.683,349.060 446.853,349.636 447.151 C 351.157 447.938,356.791 449.307,359.500 449.549 C 360.783 449.664,362.021 449.905,362.250 450.086 C 362.530 450.307,362.667 450.295,362.667 450.047 C 362.667 449.625,362.404 449.559,357.667 448.807 C 354.713 448.338,350.296 447.113,348.316 446.214 C 348.031 446.085,347.694 446.084,347.566 446.212 M225.167 448.667 C 224.923 449.061,225.249 449.061,226.167 448.667 C 226.809 448.390,226.807 448.379,226.103 448.357 C 225.701 448.344,225.280 448.483,225.167 448.667 M220.921 449.569 C 221.335 449.649,221.935 449.646,222.254 449.562 C 222.573 449.479,222.233 449.414,221.500 449.417 C 220.767 449.421,220.506 449.489,220.921 449.569 M211.667 450.333 L 210.833 450.600 211.667 450.628 C 212.125 450.644,212.725 450.511,213.000 450.333 C 213.637 449.922,212.951 449.922,211.667 450.333 M242.315 451.194 C 239.193 453.534,233.872 455.612,228.688 456.516 C 226.976 456.815,225.644 457.234,225.339 457.571 C 224.902 458.054,224.901 458.081,225.333 457.765 C 225.608 457.563,227.033 457.224,228.500 457.010 C 232.932 456.365,238.560 454.296,241.881 452.092 C 242.839 451.455,243.782 451.032,243.975 451.151 C 244.188 451.283,244.248 451.165,244.127 450.851 C 243.859 450.152,243.652 450.192,242.315 451.194 M205.417 451.230 C 205.737 451.314,206.262 451.314,206.583 451.230 C 206.904 451.146,206.642 451.077,206.000 451.077 C 205.358 451.077,205.096 451.146,205.417 451.230 M194.833 453.333 C 193.984 453.698,194.860 453.698,196.000 453.333 C 196.670 453.119,196.703 453.065,196.167 453.057 C 195.800 453.051,195.200 453.176,194.833 453.333 M187.000 455.667 C 186.337 456.095,187.170 456.095,188.167 455.667 L 188.833 455.380 188.167 455.362 C 187.800 455.352,187.275 455.489,187.000 455.667 M178.399 460.617 C 177.599 461.221,176.339 462.960,176.336 463.467 C 176.334 463.632,176.776 463.156,177.317 462.409 C 177.858 461.663,178.569 460.901,178.897 460.718 C 179.226 460.534,179.418 460.307,179.326 460.214 C 179.233 460.122,178.816 460.303,178.399 460.617 M189.333 463.426 C 188.508 463.622,188.058 463.830,188.333 463.888 C 188.608 463.947,189.583 463.785,190.500 463.528 C 192.441 462.983,191.539 462.904,189.333 463.426 M175.162 465.875 C 174.706 466.906,174.339 467.843,174.347 467.958 C 174.364 468.235,175.299 466.496,175.880 465.107 C 176.669 463.218,176.039 463.893,175.162 465.875 M182.667 466.076 C 182.025 466.454,180.829 467.143,180.008 467.606 C 179.187 468.070,178.709 468.514,178.944 468.592 C 179.179 468.671,179.626 468.520,179.936 468.258 C 181.323 467.085,183.547 466.034,183.129 466.750 C 182.995 466.979,183.208 466.884,183.602 466.539 C 184.137 466.069,184.366 465.158,183.897 465.361 C 183.862 465.376,183.308 465.698,182.667 466.076 " stroke="none" fill="#815e54" fill-rule="evenodd"></path><path id="path3" d="M237.693 359.417 C 237.711 359.918,237.782 360.001,237.910 359.667 C 238.014 359.392,238.265 359.056,238.467 358.922 C 238.693 358.771,238.610 358.675,238.250 358.672 C 237.858 358.668,237.675 358.913,237.693 359.417 M344.833 365.152 C 344.283 365.390,342.947 365.691,341.863 365.823 C 340.454 365.993,340.027 366.152,340.363 366.380 C 340.684 366.597,340.250 366.673,339.000 366.620 C 332.750 366.353,323.667 366.682,323.667 367.175 C 323.667 367.454,323.312 367.818,322.879 367.983 C 321.999 368.317,321.589 369.077,321.880 369.834 C 322.192 370.647,321.698 372.164,321.262 371.729 C 320.814 371.280,319.216 374.409,319.285 375.602 C 319.309 376.024,319.186 376.282,319.012 376.174 C 318.562 375.896,317.564 377.969,317.597 379.114 C 317.616 379.801,317.438 380.122,316.969 380.245 C 316.513 380.364,316.374 380.602,316.509 381.029 C 316.777 381.871,316.034 383.261,315.649 382.638 C 315.456 382.327,315.240 382.672,314.951 383.754 C 314.720 384.616,314.434 385.164,314.316 384.971 C 314.197 384.779,313.941 385.044,313.748 385.561 C 313.554 386.077,313.283 386.800,313.145 387.167 C 313.008 387.533,312.925 388.018,312.961 388.245 C 312.998 388.480,312.818 388.576,312.539 388.469 C 311.886 388.218,311.352 389.283,311.567 390.407 C 311.703 391.117,312.222 391.557,314.025 392.490 C 320.419 395.799,320.397 395.762,317.352 398.033 C 316.058 398.998,315.000 399.919,315.000 400.080 C 315.000 400.241,314.850 400.280,314.667 400.167 C 314.121 399.829,314.286 400.335,315.031 401.281 C 315.415 401.768,315.960 402.167,316.242 402.169 C 316.524 402.170,316.997 402.538,317.294 402.988 C 317.608 403.464,317.660 403.698,317.417 403.549 C 317.188 403.409,317.000 403.427,317.000 403.589 C 317.000 403.992,318.508 405.381,318.718 405.171 C 318.810 405.078,319.238 405.377,319.668 405.835 C 320.116 406.311,320.270 406.667,320.030 406.667 C 319.799 406.667,320.086 407.267,320.668 408.002 C 321.249 408.736,321.870 409.247,322.047 409.137 C 322.474 408.874,324.048 410.717,323.848 411.245 C 323.677 411.694,324.783 412.439,325.121 412.102 C 325.235 411.987,325.427 412.387,325.548 412.991 C 325.682 413.658,326.010 414.152,326.384 414.250 C 326.723 414.339,327.000 414.595,327.000 414.821 C 327.000 415.350,328.218 416.458,328.411 416.104 C 328.491 415.955,328.517 416.007,328.468 416.219 C 328.348 416.736,329.482 417.734,329.830 417.417 C 329.983 417.279,329.991 417.366,329.850 417.610 C 329.542 418.143,331.279 420.092,331.862 419.868 C 332.076 419.786,332.232 419.968,332.209 420.273 C 332.186 420.577,332.496 420.972,332.898 421.151 C 333.301 421.330,333.716 421.819,333.821 422.238 C 333.935 422.690,334.265 423.000,334.632 423.000 C 334.973 423.000,335.441 423.228,335.673 423.508 C 336.031 423.939,335.999 423.980,335.464 423.779 C 334.907 423.569,334.887 423.607,335.291 424.104 C 335.542 424.414,336.012 424.667,336.333 424.667 C 336.987 424.667,337.776 425.446,337.451 425.771 C 337.335 425.887,337.637 426.132,338.120 426.316 C 338.642 426.514,339.000 426.906,339.000 427.278 C 339.000 427.942,344.881 433.563,345.220 433.224 C 345.468 432.976,346.333 433.836,346.333 434.329 C 346.333 434.536,346.467 434.623,346.630 434.523 C 346.793 434.422,347.164 434.700,347.453 435.141 C 347.785 435.648,348.198 435.886,348.574 435.787 C 348.902 435.702,349.500 435.939,349.904 436.316 C 350.308 436.692,350.957 437.049,351.347 437.108 C 351.736 437.167,352.155 437.370,352.277 437.558 C 352.890 438.499,356.064 439.146,359.833 439.096 C 360.633 439.086,360.900 439.160,360.500 439.281 C 359.371 439.624,371.034 440.197,372.647 439.878 C 373.716 439.667,374.318 439.705,374.813 440.016 C 375.191 440.253,376.137 440.414,376.917 440.375 C 377.696 440.335,378.333 440.430,378.333 440.585 C 378.333 440.740,379.496 441.056,380.917 441.287 C 382.337 441.518,384.700 441.984,386.167 442.323 C 387.633 442.662,389.621 443.042,390.583 443.167 C 391.546 443.293,392.333 443.504,392.333 443.637 C 392.333 443.976,395.940 445.076,396.308 444.849 C 396.732 444.587,398.412 445.270,398.197 445.617 C 398.051 445.853,399.332 446.667,399.849 446.667 C 399.932 446.667,400.000 445.497,400.000 444.068 L 400.000 441.470 397.782 438.152 C 394.373 433.052,391.050 428.811,387.739 425.333 L 384.724 422.167 384.152 419.167 C 382.527 410.644,379.821 405.358,376.623 404.461 C 374.324 403.816,374.541 404.069,370.937 397.833 C 365.298 388.080,362.330 384.663,357.500 382.367 C 355.345 381.343,354.489 381.071,346.780 378.960 C 344.000 378.199,341.562 377.475,341.362 377.351 C 340.860 377.041,342.235 373.004,344.320 368.667 C 344.452 368.392,344.959 367.449,345.447 366.572 C 346.650 364.407,346.636 364.375,344.833 365.152 M239.000 367.038 C 239.000 367.389,239.137 367.936,239.305 368.255 C 239.472 368.573,239.943 369.658,240.350 370.667 C 240.757 371.675,241.595 373.537,242.212 374.805 C 243.608 377.675,243.618 377.566,241.917 378.013 C 233.187 380.307,231.227 381.679,225.103 389.787 C 220.378 396.043,219.751 397.279,218.154 403.484 C 216.867 408.484,215.214 410.659,212.276 411.217 C 210.884 411.481,210.000 411.924,210.000 412.359 C 210.000 412.543,209.678 413.130,209.283 413.663 C 208.615 414.567,208.601 414.702,209.070 415.671 C 210.174 417.950,207.571 424.667,205.585 424.667 C 204.934 424.667,204.186 424.931,203.813 425.294 C 202.317 426.744,198.887 431.196,196.334 435.000 C 195.534 436.192,194.757 437.217,194.606 437.278 C 194.456 437.339,194.333 437.529,194.333 437.700 C 194.333 437.870,193.602 439.020,192.707 440.255 C 190.874 442.786,189.245 445.899,187.683 449.853 C 186.522 452.793,185.084 454.111,181.821 455.223 C 179.636 455.967,178.067 458.787,179.209 459.918 C 179.768 460.472,179.785 460.471,179.570 459.903 C 179.422 459.512,179.487 459.339,179.760 459.402 C 180.441 459.559,183.949 457.564,184.116 456.924 C 184.281 456.296,185.000 456.096,185.000 456.678 C 185.000 457.109,186.128 456.539,187.000 455.666 C 187.379 455.287,187.885 455.119,188.311 455.231 C 189.190 455.461,191.064 454.706,190.774 454.238 C 190.637 454.016,190.772 453.969,191.138 454.110 C 191.979 454.432,194.333 453.987,194.333 453.506 C 194.333 453.240,195.177 453.025,196.750 452.891 C 199.924 452.619,203.027 451.980,202.818 451.642 C 202.727 451.494,203.203 451.462,203.878 451.572 C 204.787 451.719,205.040 451.667,204.855 451.368 C 204.675 451.077,205.004 450.973,206.053 450.992 C 208.622 451.037,211.308 450.593,210.333 450.284 C 209.875 450.139,211.131 450.106,213.125 450.212 C 215.728 450.349,216.685 450.299,216.522 450.035 C 216.388 449.819,216.544 449.660,216.897 449.651 C 221.652 449.524,225.095 449.089,224.823 448.650 C 224.709 448.466,225.326 448.333,226.292 448.333 C 228.286 448.333,230.042 447.771,229.362 447.351 C 228.922 447.079,231.147 446.513,231.858 446.716 C 232.573 446.919,234.708 445.922,234.533 445.467 C 234.427 445.188,234.566 445.000,234.879 445.000 C 235.168 445.000,235.849 444.625,236.394 444.167 C 236.939 443.708,237.710 443.327,238.109 443.320 C 239.070 443.303,242.061 440.546,241.815 439.905 C 241.711 439.634,241.865 439.329,242.165 439.213 C 242.531 439.073,242.626 439.139,242.464 439.420 C 242.333 439.648,242.629 439.466,243.123 439.016 C 243.623 438.560,243.939 437.989,243.837 437.724 C 243.605 437.117,244.251 436.323,244.804 436.535 C 245.037 436.624,245.419 436.465,245.654 436.182 C 245.944 435.833,245.961 435.667,245.707 435.667 C 245.502 435.667,245.333 435.517,245.333 435.333 C 245.333 435.150,245.633 435.000,246.000 435.000 C 246.496 435.000,246.667 434.778,246.667 434.131 C 246.667 433.505,246.803 433.314,247.155 433.449 C 247.648 433.639,249.102 431.980,248.924 431.432 C 248.874 431.279,249.193 430.782,249.632 430.327 C 250.072 429.872,250.311 429.711,250.164 429.968 C 249.979 430.292,250.023 430.359,250.305 430.184 C 250.529 430.046,250.632 429.723,250.533 429.466 C 250.435 429.210,250.500 429.000,250.677 429.000 C 250.855 429.000,251.000 428.759,251.000 428.464 C 251.000 428.130,251.184 427.999,251.491 428.117 C 252.050 428.332,253.084 427.072,252.768 426.561 C 252.656 426.379,252.719 426.326,252.908 426.443 C 253.337 426.709,255.667 423.772,255.667 422.965 C 255.667 422.639,255.817 422.280,256.000 422.167 C 256.183 422.053,256.333 422.132,256.333 422.341 C 256.333 422.550,256.998 421.943,257.809 420.992 C 258.720 419.925,259.219 419.053,259.111 418.715 C 258.975 418.287,259.008 418.266,259.260 418.619 C 259.627 419.132,259.952 418.780,260.173 417.634 C 260.340 416.769,260.986 415.952,261.333 416.167 C 261.712 416.401,262.427 415.422,262.175 415.014 C 262.057 414.822,262.344 414.519,262.813 414.341 C 263.283 414.163,263.683 413.825,263.702 413.592 C 263.722 413.358,263.759 412.867,263.785 412.500 C 263.816 412.072,264.036 411.867,264.399 411.927 C 264.852 412.002,265.949 410.751,265.723 410.417 C 265.458 410.024,265.759 409.390,266.141 409.536 C 266.526 409.684,267.615 408.417,267.390 408.083 C 267.202 407.805,267.385 407.347,267.656 407.417 C 268.121 407.537,270.031 405.241,269.855 404.774 C 269.773 404.559,269.960 404.184,270.270 403.941 C 270.787 403.536,270.793 403.555,270.339 404.167 C 269.851 404.825,269.854 404.826,270.581 404.205 C 270.986 403.860,271.223 403.424,271.107 403.237 C 270.992 403.050,271.054 402.994,271.245 403.112 C 271.643 403.358,272.667 401.955,272.667 401.164 C 272.667 400.847,272.899 400.677,273.250 400.735 C 274.218 400.898,273.867 398.991,272.742 397.978 C 271.488 396.848,271.619 396.611,274.615 394.590 C 276.018 393.643,277.457 392.598,277.813 392.268 C 278.168 391.937,278.637 391.667,278.855 391.667 C 279.560 391.667,280.157 390.690,279.719 390.253 C 279.023 389.556,279.316 389.215,280.052 389.865 L 280.770 390.500 280.182 389.586 C 279.858 389.084,279.462 388.754,279.301 388.854 C 279.140 388.953,279.088 388.826,279.186 388.571 C 279.284 388.316,279.104 387.895,278.786 387.637 C 278.275 387.221,278.234 387.234,278.427 387.750 C 278.547 388.071,278.500 388.333,278.323 388.333 C 277.962 388.333,277.936 388.249,277.852 386.833 C 277.819 386.283,277.522 385.421,277.191 384.917 C 276.533 383.912,276.148 383.702,276.461 384.517 C 276.570 384.802,276.529 384.954,276.370 384.856 C 276.211 384.758,276.001 384.375,275.905 384.005 C 275.801 383.609,275.864 383.416,276.059 383.536 C 276.240 383.648,276.147 383.274,275.852 382.703 C 275.292 381.621,274.775 381.266,275.139 382.214 C 275.314 382.671,275.265 382.692,274.841 382.340 C 274.562 382.108,274.333 381.562,274.333 381.126 C 274.333 380.690,274.174 380.333,273.980 380.333 C 273.786 380.333,273.721 380.182,273.835 379.997 C 274.134 379.514,273.695 378.333,273.250 378.423 C 273.044 378.466,272.782 377.975,272.669 377.333 C 272.556 376.692,272.272 375.867,272.040 375.500 L 271.616 374.833 271.809 375.500 C 272.000 376.162,271.998 376.162,271.493 375.510 C 271.214 375.148,271.059 374.661,271.149 374.426 C 271.239 374.192,271.142 374.000,270.934 374.000 C 270.726 374.000,270.648 373.907,270.762 373.794 C 270.875 373.680,270.750 373.369,270.484 373.103 C 270.218 372.837,270.002 372.442,270.005 372.226 C 270.008 371.996,270.144 372.040,270.333 372.333 C 270.786 373.034,270.736 372.393,270.221 370.916 C 269.462 368.735,268.503 367.913,267.014 368.164 C 266.234 368.296,265.649 368.241,265.515 368.024 C 265.393 367.827,264.890 367.669,264.397 367.672 C 263.685 367.676,263.603 367.746,264.000 368.013 C 264.358 368.253,263.883 368.332,262.333 368.289 C 261.142 368.256,259.417 368.320,258.500 368.432 C 257.583 368.544,255.737 368.642,254.397 368.651 C 253.052 368.660,252.043 368.800,252.145 368.965 C 252.443 369.447,251.586 369.606,250.160 369.332 C 249.175 369.142,249.048 369.058,249.667 369.004 C 251.077 368.882,248.423 368.330,246.667 368.381 C 244.573 368.441,242.288 367.975,243.167 367.667 C 243.719 367.473,243.627 367.372,242.581 367.027 C 240.380 366.300,239.000 366.305,239.000 367.038 M362.667 450.602 C 362.667 450.835,364.487 453.540,366.145 455.768 C 366.444 456.171,368.646 459.200,371.038 462.500 C 373.430 465.800,375.537 468.554,375.720 468.620 C 375.904 468.686,375.166 467.561,374.082 466.120 C 371.406 462.563,365.713 454.600,364.167 452.250 C 362.921 450.357,362.667 450.077,362.667 450.602 M244.357 451.500 C 244.357 451.683,244.571 452.208,244.833 452.667 C 245.095 453.125,245.310 453.350,245.310 453.167 C 245.310 452.983,245.095 452.458,244.833 452.000 C 244.571 451.542,244.357 451.317,244.357 451.500 M221.415 463.236 C 219.557 466.108,218.113 468.579,218.205 468.729 C 218.297 468.878,220.651 468.968,223.436 468.930 L 228.500 468.860 223.424 468.680 L 218.348 468.500 221.704 463.391 C 223.550 460.581,225.000 458.222,224.926 458.149 C 224.853 458.075,223.273 460.365,221.415 463.236 M398.373 463.389 C 398.347 464.835,398.188 465.663,397.917 465.760 C 397.688 465.842,397.603 466.019,397.728 466.154 C 398.092 466.547,398.667 466.021,398.667 465.294 C 398.667 464.875,398.810 464.716,399.052 464.865 C 399.296 465.016,399.346 464.956,399.188 464.701 C 399.052 464.481,398.821 463.595,398.676 462.733 L 398.412 461.167 398.373 463.389 M396.417 468.243 C 397.104 468.315,398.229 468.315,398.917 468.243 C 399.604 468.171,399.042 468.112,397.667 468.112 C 396.292 468.112,395.729 468.171,396.417 468.243 M390.750 468.572 C 391.254 468.648,392.079 468.648,392.583 468.572 C 393.087 468.496,392.675 468.433,391.667 468.433 C 390.658 468.433,390.246 468.496,390.750 468.572 M182.417 469.230 C 182.737 469.314,183.262 469.314,183.583 469.230 C 183.904 469.146,183.642 469.077,183.000 469.077 C 182.358 469.077,182.096 469.146,182.417 469.230 M197.417 469.230 C 197.737 469.314,198.262 469.314,198.583 469.230 C 198.904 469.146,198.642 469.077,198.000 469.077 C 197.358 469.077,197.096 469.146,197.417 469.230 M239.923 469.242 C 240.522 469.316,241.422 469.314,241.923 469.238 C 242.424 469.162,241.933 469.101,240.833 469.103 C 239.733 469.105,239.324 469.167,239.923 469.242 M248.750 469.563 C 249.071 469.647,249.596 469.647,249.917 469.563 C 250.237 469.479,249.975 469.411,249.333 469.411 C 248.692 469.411,248.429 469.479,248.750 469.563 M285.250 469.574 C 285.846 469.648,286.821 469.648,287.417 469.574 C 288.012 469.501,287.525 469.440,286.333 469.440 C 285.142 469.440,284.654 469.501,285.250 469.574 M294.923 469.575 C 295.522 469.649,296.422 469.648,296.923 469.572 C 297.424 469.495,296.933 469.435,295.833 469.437 C 294.733 469.438,294.324 469.501,294.923 469.575 M325.417 469.563 C 325.737 469.647,326.262 469.647,326.583 469.563 C 326.904 469.479,326.642 469.411,326.000 469.411 C 325.358 469.411,325.096 469.479,325.417 469.563 M319.750 469.896 C 320.071 469.980,320.596 469.980,320.917 469.896 C 321.237 469.813,320.975 469.744,320.333 469.744 C 319.692 469.744,319.429 469.813,319.750 469.896 M344.083 469.905 C 344.587 469.982,345.412 469.982,345.917 469.905 C 346.421 469.829,346.008 469.767,345.000 469.767 C 343.992 469.767,343.579 469.829,344.083 469.905 M271.250 470.241 C 271.846 470.315,272.821 470.315,273.417 470.241 C 274.012 470.167,273.525 470.107,272.333 470.107 C 271.142 470.107,270.654 470.167,271.250 470.241 " stroke="none" fill="#3c7c7b" fill-rule="evenodd"></path><path id="path4" d="M303.127 241.817 C 302.850 242.538,303.545 245.802,304.723 249.313 C 306.114 253.458,306.191 253.394,301.478 251.994 C 298.633 251.148,291.289 250.252,289.398 250.519 C 287.071 250.849,285.159 251.331,277.167 253.608 C 269.953 255.662,263.578 255.251,255.501 252.211 C 252.277 250.997,251.902 251.111,253.790 252.729 C 257.086 255.554,262.275 258.731,265.934 260.165 C 269.043 261.384,269.130 261.714,266.712 263.137 C 263.047 265.294,258.662 268.882,256.167 271.765 C 255.067 273.036,254.013 274.247,253.824 274.455 C 253.636 274.663,252.520 275.958,251.345 277.332 C 250.169 278.706,248.728 280.281,248.143 280.832 C 245.071 283.722,243.609 285.000,243.376 285.000 C 243.233 285.000,242.753 285.393,242.308 285.873 C 241.019 287.266,239.292 288.219,236.638 289.001 C 234.054 289.762,233.388 290.122,233.935 290.460 C 234.651 290.902,242.408 291.727,246.333 291.779 L 250.500 291.833 250.384 292.833 C 249.996 296.173,245.699 310.905,244.794 312.001 C 244.566 312.276,244.226 312.904,244.039 313.397 C 243.852 313.890,242.635 316.120,241.335 318.354 C 240.035 320.587,239.015 322.535,239.069 322.683 C 239.253 323.189,246.820 319.134,248.276 317.750 C 248.821 317.232,250.023 316.573,250.151 316.723 C 250.253 316.843,253.011 332.010,253.004 332.417 C 253.002 332.554,253.212 332.667,253.471 332.667 C 253.966 332.667,254.187 331.683,254.481 328.167 C 254.656 326.075,254.638 326.115,253.816 329.632 C 253.455 331.179,253.033 329.784,251.875 323.204 C 250.529 315.557,250.524 315.546,248.640 316.863 C 244.100 320.039,240.667 321.730,240.667 320.790 C 240.667 320.674,241.419 319.264,242.339 317.656 C 245.998 311.263,247.314 307.793,249.648 298.387 C 251.553 290.713,251.753 291.333,247.369 291.333 C 238.536 291.333,234.182 290.361,237.702 289.176 C 241.999 287.729,250.689 279.963,255.886 272.928 C 257.590 270.620,263.259 265.797,266.963 263.501 C 270.026 261.603,270.118 261.134,267.588 260.318 C 265.338 259.593,260.493 256.930,257.614 254.836 C 254.795 252.786,254.484 252.303,256.535 253.160 C 261.442 255.210,270.026 255.843,275.333 254.546 C 282.301 252.842,285.515 251.971,286.300 251.573 C 288.524 250.444,296.760 251.219,303.414 253.183 C 305.313 253.743,306.059 253.842,306.237 253.556 C 306.525 253.094,306.380 251.639,306.001 251.167 C 305.563 250.621,304.000 245.206,304.000 244.233 C 304.000 243.011,304.263 243.087,306.181 244.866 C 307.937 246.495,311.306 248.841,312.377 249.181 C 312.732 249.293,313.363 249.726,313.780 250.143 C 314.197 250.560,314.679 250.961,314.852 251.034 C 315.632 251.363,320.667 258.222,320.667 258.956 C 320.667 259.582,322.398 261.333,323.017 261.333 C 324.163 261.333,327.374 262.723,328.488 263.701 C 329.093 264.232,329.756 264.667,329.961 264.667 C 330.166 264.667,330.333 264.822,330.333 265.012 C 330.333 265.203,331.029 266.034,331.879 266.860 C 333.529 268.464,336.667 272.262,336.667 272.655 C 336.667 272.785,338.065 274.304,339.773 276.029 C 343.320 279.612,343.787 280.514,342.264 280.848 C 341.686 280.976,341.113 280.913,340.900 280.700 C 340.541 280.341,337.000 280.165,337.000 280.507 C 337.000 280.603,337.425 281.619,337.945 282.765 C 338.465 283.912,338.995 285.296,339.124 285.841 C 339.252 286.387,339.647 287.583,340.002 288.500 C 340.473 289.716,340.877 292.689,341.498 299.500 C 342.273 308.002,342.884 311.591,343.708 312.483 C 345.113 314.006,343.739 314.601,341.942 313.247 C 340.682 312.298,338.939 311.333,338.484 311.333 C 337.955 311.333,338.811 314.336,340.009 316.684 C 341.434 319.478,340.970 320.051,338.418 318.650 C 335.967 317.305,335.829 317.411,335.370 320.990 C 335.155 322.666,334.771 324.592,334.516 325.269 C 334.262 325.946,333.959 327.100,333.844 327.833 C 333.556 329.664,332.670 332.333,332.350 332.333 C 332.205 332.333,331.897 331.654,331.664 330.825 C 331.224 329.251,330.886 328.825,330.345 329.159 C 330.164 329.271,330.291 329.624,330.635 329.968 C 330.991 330.324,331.339 331.328,331.470 332.376 C 331.594 333.364,331.830 334.392,331.996 334.660 C 332.321 335.187,332.385 335.091,332.768 333.500 C 332.856 333.133,333.536 330.733,334.280 328.166 C 335.024 325.598,335.813 322.411,336.032 321.082 C 336.511 318.180,336.698 318.123,339.586 320.000 C 342.341 321.790,342.670 321.531,341.369 318.592 C 338.426 311.947,338.502 310.962,341.730 313.859 C 342.795 314.814,344.668 316.000,345.111 316.000 C 345.190 316.000,344.735 314.387,344.101 312.417 C 343.085 309.261,342.834 307.719,341.999 299.500 C 341.069 290.349,340.228 286.032,338.861 283.385 C 338.223 282.152,338.068 280.814,338.574 280.913 C 345.187 282.215,345.676 281.303,340.990 276.411 C 338.887 274.215,336.909 272.062,336.595 271.626 C 332.110 265.405,326.864 261.000,323.939 261.000 C 322.953 261.000,322.172 260.444,321.598 259.333 C 318.810 253.937,314.161 248.903,310.951 247.802 C 309.886 247.437,307.914 245.841,305.289 243.217 C 303.728 241.657,303.296 241.377,303.127 241.817 M254.828 325.342 C 254.692 325.561,254.753 325.847,254.963 325.977 C 255.405 326.251,256.816 331.488,257.618 335.833 C 258.478 340.493,259.268 340.300,260.332 335.171 C 260.858 332.637,260.510 332.436,259.830 334.881 C 258.980 337.941,258.973 337.951,258.475 336.833 C 258.230 336.283,258.022 335.533,258.013 335.167 C 257.942 332.491,255.351 324.496,254.828 325.342 M329.125 331.958 C 328.530 334.099,328.144 334.507,327.902 333.250 C 327.663 332.009,327.648 334.677,327.886 336.117 L 328.098 337.401 328.571 336.284 C 329.049 335.155,330.014 330.273,329.806 330.041 C 329.744 329.972,329.438 330.834,329.125 331.958 M325.975 333.583 L 325.167 334.500 326.167 333.667 C 326.717 333.208,327.229 332.796,327.306 332.750 C 327.382 332.704,327.296 332.667,327.114 332.667 C 326.932 332.667,326.419 333.079,325.975 333.583 M319.333 344.076 C 317.918 346.437,313.678 350.617,310.722 352.564 L 307.908 354.417 308.121 357.181 C 308.663 364.243,311.252 372.333,312.970 372.333 C 313.323 372.333,314.232 369.336,315.520 363.930 C 316.554 359.586,316.583 359.555,319.066 360.062 C 325.167 361.308,339.629 360.506,343.833 358.689 C 344.200 358.530,345.025 358.208,345.667 357.973 C 346.308 357.737,347.197 357.268,347.641 356.929 C 348.273 356.448,348.507 356.406,348.719 356.740 C 348.925 357.064,348.991 357.041,348.995 356.646 C 349.007 355.419,347.077 354.274,337.500 349.827 C 334.903 348.621,330.650 347.063,328.333 346.469 C 327.325 346.211,326.050 345.835,325.500 345.634 C 324.950 345.434,323.900 345.145,323.167 344.993 C 320.673 344.475,319.934 344.066,320.167 343.333 C 320.485 342.332,320.256 342.535,319.333 344.076 M271.085 345.164 C 270.856 345.424,270.106 345.726,269.418 345.836 C 267.291 346.176,254.548 349.078,253.667 349.423 C 252.145 350.019,251.516 350.237,249.667 350.811 C 243.490 352.725,238.142 355.807,237.940 357.570 C 237.816 358.655,238.680 359.242,241.667 360.102 C 244.001 360.774,267.399 361.008,269.331 360.379 C 269.972 360.171,271.133 360.000,271.911 360.000 L 273.327 360.000 274.296 362.139 C 274.830 363.315,275.427 365.002,275.623 365.889 C 275.820 366.775,276.341 368.373,276.782 369.439 L 277.583 371.378 278.275 370.499 C 279.777 368.588,280.976 362.534,280.979 356.833 L 280.982 352.833 279.797 352.000 C 277.400 350.315,274.785 348.063,273.278 346.387 C 271.548 344.462,271.651 344.520,271.085 345.164 M238.412 365.668 C 238.733 366.184,239.990 366.819,240.195 366.570 C 240.227 366.532,239.751 366.173,239.138 365.773 C 238.152 365.130,238.068 365.118,238.412 365.668 M266.333 367.985 C 265.728 368.167,265.970 368.227,267.218 368.201 C 268.162 368.182,268.866 368.054,268.781 367.917 C 268.594 367.613,267.462 367.644,266.333 367.985 M262.250 368.235 C 262.662 368.315,263.337 368.315,263.750 368.235 C 264.162 368.156,263.825 368.091,263.000 368.091 C 262.175 368.091,261.837 368.156,262.250 368.235 M250.167 369.337 C 250.900 369.480,251.725 369.467,252.000 369.308 C 252.322 369.123,251.849 369.030,250.667 369.048 C 248.847 369.076,248.843 369.079,250.167 369.337 M321.708 370.000 C 321.680 370.275,321.574 370.875,321.473 371.333 C 321.313 372.054,321.339 372.086,321.666 371.574 C 321.874 371.248,321.979 370.648,321.901 370.240 C 321.822 369.833,321.735 369.725,321.708 370.000 M274.333 381.404 C 274.333 381.687,274.583 382.124,274.888 382.376 C 275.395 382.794,275.406 382.762,275.009 382.000 C 274.429 380.883,274.333 380.798,274.333 381.404 M316.048 382.048 C 315.813 382.424,315.694 382.805,315.783 382.894 C 315.873 382.984,316.120 382.731,316.333 382.333 C 316.837 381.392,316.603 381.158,316.048 382.048 M277.682 387.167 C 277.674 387.662,278.269 388.509,278.478 388.299 C 278.578 388.200,278.441 387.829,278.174 387.476 C 277.907 387.122,277.685 386.983,277.682 387.167 M279.351 389.517 C 279.341 389.709,279.500 390.034,279.704 390.238 C 280.209 390.742,279.856 391.212,278.486 391.862 C 277.238 392.455,276.919 393.046,278.000 392.763 C 278.367 392.667,278.667 392.472,278.667 392.329 C 278.667 392.186,279.304 391.754,280.083 391.368 C 280.862 390.983,281.256 390.667,280.957 390.667 C 280.659 390.667,280.179 390.329,279.891 389.917 C 279.604 389.504,279.360 389.324,279.351 389.517 M282.048 390.299 C 281.717 390.507,281.699 390.647,281.981 390.822 C 282.390 391.075,281.208 392.333,280.560 392.333 C 280.374 392.333,280.309 392.420,280.416 392.527 C 280.522 392.634,280.943 392.542,281.351 392.324 C 282.215 391.862,284.182 391.262,283.896 391.549 C 283.620 391.825,288.710 394.464,289.424 394.415 C 289.749 394.392,289.927 394.515,289.821 394.687 C 289.714 394.859,289.792 395.000,289.994 395.000 C 290.195 395.000,290.793 395.320,291.323 395.712 C 291.852 396.103,292.500 396.341,292.762 396.240 C 293.072 396.121,293.213 396.252,293.163 396.612 C 292.990 397.872,292.557 398.666,292.044 398.662 C 291.571 398.657,291.565 398.614,292.000 398.333 C 292.312 398.132,292.348 398.008,292.096 398.005 C 291.874 398.002,291.403 398.311,291.049 398.691 C 290.695 399.071,290.202 399.418,289.953 399.461 C 288.932 399.640,288.000 400.063,288.000 400.348 C 288.000 400.527,288.334 400.523,288.817 400.339 C 289.509 400.076,289.607 400.116,289.457 400.598 C 289.311 401.064,289.374 401.050,289.806 400.520 C 290.096 400.164,290.333 400.049,290.333 400.264 C 290.333 400.895,292.486 399.716,292.851 398.886 C 293.034 398.469,293.516 398.133,294.000 398.088 L 294.833 398.009 294.083 398.389 C 293.671 398.598,293.333 398.899,293.333 399.059 C 293.333 399.220,293.799 399.110,294.368 398.816 C 295.251 398.359,295.555 398.344,296.451 398.717 C 297.028 398.957,297.800 399.112,298.167 399.062 C 298.727 398.985,298.754 399.029,298.333 399.340 C 297.935 399.635,297.995 399.665,298.625 399.486 C 299.081 399.357,299.336 399.392,299.227 399.570 C 298.940 400.034,300.849 401.037,301.525 400.778 C 301.916 400.628,302.032 400.679,301.875 400.933 C 301.726 401.173,302.500 401.745,303.987 402.493 C 305.277 403.143,306.333 403.553,306.333 403.404 C 306.333 403.256,305.806 402.943,305.161 402.710 C 304.459 402.456,304.080 402.140,304.216 401.920 C 304.360 401.687,304.247 401.628,303.905 401.760 C 303.521 401.907,303.422 401.823,303.559 401.466 C 303.712 401.069,303.568 401.012,302.862 401.189 C 302.208 401.353,301.999 401.293,302.070 400.960 C 302.198 400.362,298.371 398.346,297.500 398.552 C 297.124 398.641,296.981 398.592,297.171 398.439 C 297.606 398.088,297.696 396.333,297.278 396.333 C 297.104 396.333,297.053 396.183,297.167 396.000 C 297.280 395.817,297.523 395.667,297.706 395.667 C 297.889 395.667,297.947 395.817,297.833 396.000 C 297.720 396.183,297.777 396.333,297.961 396.333 C 298.144 396.333,298.387 396.183,298.500 396.000 C 298.613 395.817,298.510 395.664,298.270 395.662 C 297.948 395.658,297.963 395.575,298.325 395.346 C 298.648 395.141,298.913 395.172,299.100 395.434 C 299.319 395.742,299.423 395.738,299.553 395.417 C 299.646 395.188,299.914 395.000,300.149 395.000 C 300.384 395.000,300.935 394.718,301.373 394.374 C 301.811 394.029,302.456 393.691,302.807 393.624 C 303.631 393.464,303.848 392.808,303.163 392.545 C 302.813 392.410,302.713 392.473,302.871 392.727 C 303.026 392.979,302.930 393.045,302.594 392.916 C 302.311 392.807,301.574 393.054,300.956 393.465 C 300.339 393.876,298.854 394.753,297.658 395.414 L 295.483 396.616 293.325 395.438 C 286.803 391.877,285.730 391.333,285.223 391.333 C 284.917 391.333,284.667 391.174,284.667 390.980 C 284.667 390.786,284.529 390.712,284.362 390.816 C 284.194 390.919,284.007 390.873,283.945 390.713 C 283.769 390.253,282.546 389.987,282.048 390.299 M307.453 390.818 C 307.488 391.413,307.728 391.649,308.399 391.747 C 308.894 391.820,309.222 391.757,309.129 391.606 C 308.853 391.159,310.767 391.307,311.667 391.802 C 313.119 392.603,315.808 393.906,316.500 394.143 C 317.730 394.567,316.560 393.774,314.083 392.506 C 312.227 391.556,311.664 391.103,311.657 390.551 C 311.647 389.903,311.613 389.890,311.307 390.417 C 310.892 391.128,310.119 391.155,308.577 390.511 C 307.424 390.029,307.406 390.034,307.453 390.818 M305.052 391.093 C 303.641 391.815,303.251 392.361,303.975 392.603 C 304.172 392.668,304.333 392.488,304.333 392.201 C 304.333 391.613,305.749 391.139,306.366 391.520 C 306.623 391.679,306.683 391.630,306.532 391.385 C 306.401 391.173,306.453 391.000,306.647 391.000 C 306.841 391.000,307.000 390.850,307.000 390.667 C 307.000 390.189,306.683 390.258,305.052 391.093 M278.733 393.067 C 277.950 393.850,278.270 394.412,279.132 393.766 C 279.572 393.436,279.863 393.054,279.779 392.917 C 279.560 392.556,279.191 392.609,278.733 393.067 M274.742 394.472 C 272.355 396.108,272.090 396.333,272.559 396.333 C 272.745 396.333,273.332 395.959,273.865 395.500 C 274.398 395.042,275.058 394.663,275.333 394.657 C 275.608 394.651,276.103 394.275,276.432 393.823 C 276.762 393.370,276.987 393.009,276.932 393.019 C 276.878 393.030,275.892 393.684,274.742 394.472 M277.080 394.222 C 276.848 394.315,276.509 394.673,276.325 395.016 C 276.002 395.619,276.025 395.621,276.993 395.071 C 278.307 394.323,278.370 393.702,277.080 394.222 M316.508 395.603 C 316.412 395.699,316.345 396.240,316.360 396.806 C 316.374 397.371,316.462 397.646,316.554 397.417 C 316.785 396.846,317.261 396.892,317.392 397.499 C 317.477 397.893,317.710 397.823,318.500 397.166 C 319.050 396.709,319.237 396.425,318.917 396.536 C 318.532 396.669,318.333 396.569,318.333 396.241 C 318.333 395.762,316.863 395.248,316.508 395.603 M273.866 396.245 C 273.431 396.680,273.699 397.055,274.167 396.667 C 274.574 396.328,274.667 396.347,274.667 396.765 C 274.667 397.047,274.479 397.353,274.250 397.446 C 274.001 397.546,274.068 397.625,274.417 397.640 C 274.737 397.655,275.000 397.887,275.000 398.156 C 275.000 398.695,274.398 398.561,273.000 397.708 L 272.167 397.200 272.917 398.038 C 273.329 398.499,273.667 399.054,273.667 399.271 C 273.667 399.489,273.817 399.667,274.000 399.667 C 274.183 399.667,274.333 399.514,274.333 399.328 C 274.333 399.142,274.783 399.024,275.333 399.066 C 275.883 399.108,276.333 399.238,276.333 399.356 C 276.333 399.474,276.783 399.555,277.333 399.535 C 278.618 399.490,278.629 399.509,276.640 398.285 C 275.468 397.564,274.991 397.072,275.091 396.689 C 275.233 396.146,274.302 395.809,273.866 396.245 M294.486 397.356 C 294.380 397.527,294.059 397.667,293.773 397.667 C 293.349 397.667,293.329 397.574,293.664 397.170 C 294.094 396.652,294.820 396.816,294.486 397.356 M315.461 398.714 C 315.116 399.098,314.544 399.520,314.191 399.652 C 313.557 399.888,313.557 399.893,314.191 400.042 C 314.910 400.210,316.939 398.541,316.411 398.215 C 316.234 398.105,315.807 398.330,315.461 398.714 M278.836 400.004 C 278.948 400.185,278.880 400.333,278.686 400.333 C 278.492 400.333,278.333 400.502,278.333 400.707 C 278.333 400.951,278.530 400.922,278.897 400.624 C 279.377 400.235,279.419 400.236,279.180 400.634 C 278.734 401.373,279.907 402.073,280.796 401.599 C 281.407 401.274,281.445 401.291,281.083 401.730 C 280.735 402.152,280.842 402.382,281.731 403.118 C 282.857 404.051,283.333 404.214,283.333 403.667 C 283.333 403.483,283.071 403.330,282.750 403.326 C 282.273 403.320,282.319 403.193,283.000 402.631 C 283.815 401.959,283.816 401.947,283.083 402.107 C 282.671 402.197,282.333 402.126,282.333 401.949 C 282.333 401.772,282.183 401.720,282.000 401.833 C 281.817 401.947,281.667 401.898,281.667 401.725 C 281.667 401.552,281.268 401.149,280.782 400.830 C 280.020 400.331,279.925 400.323,280.098 400.775 C 280.235 401.131,280.151 401.243,279.837 401.122 C 279.583 401.025,279.450 400.752,279.540 400.515 C 279.631 400.279,279.464 399.993,279.169 399.880 C 278.857 399.761,278.717 399.812,278.836 400.004 M286.254 400.979 C 284.071 402.223,285.182 402.961,287.539 401.832 C 288.950 401.156,289.048 401.049,288.278 401.026 C 287.789 401.012,287.339 400.878,287.278 400.729 C 287.217 400.580,286.756 400.692,286.254 400.979 M311.083 400.750 C 311.129 400.979,310.960 401.123,310.708 401.069 C 310.456 401.016,309.953 401.241,309.590 401.569 C 309.227 401.898,308.458 402.167,307.882 402.167 C 306.332 402.167,306.222 404.299,307.770 404.328 C 307.918 404.331,307.947 404.183,307.833 404.000 C 307.720 403.817,307.850 403.667,308.123 403.667 C 308.395 403.667,308.931 403.269,309.314 402.782 C 309.696 402.296,310.109 401.997,310.230 402.119 C 310.471 402.360,312.000 401.055,312.000 400.609 C 312.000 400.457,311.775 400.333,311.500 400.333 C 311.225 400.333,311.037 400.521,311.083 400.750 M287.333 401.298 C 287.333 401.461,287.096 401.686,286.806 401.798 C 285.991 402.111,285.883 402.043,286.333 401.500 C 286.793 400.946,287.333 400.837,287.333 401.298 M283.707 402.635 C 282.905 403.142,283.586 403.689,284.501 403.272 C 284.947 403.069,285.233 402.774,285.137 402.618 C 284.912 402.255,284.296 402.262,283.707 402.635 M289.222 408.556 C 289.100 408.678,289.002 408.940,289.005 409.139 C 289.008 409.337,289.156 409.275,289.333 409.000 C 289.648 408.513,289.688 408.549,289.807 409.417 C 289.838 409.646,290.043 409.796,290.263 409.751 C 292.026 409.386,292.738 411.972,291.169 413.040 C 290.529 413.476,290.004 413.955,290.002 414.103 C 290.001 414.251,289.860 414.286,289.690 414.181 C 289.188 413.871,288.885 414.688,289.345 415.112 C 289.671 415.414,289.704 415.394,289.494 415.027 C 289.292 414.672,289.367 414.608,289.796 414.773 C 290.111 414.894,290.290 414.866,290.194 414.711 C 290.099 414.557,290.391 414.082,290.844 413.657 C 291.353 413.178,291.667 413.051,291.667 413.322 C 291.667 413.563,291.404 413.975,291.083 414.237 C 290.762 414.499,290.982 414.449,291.571 414.126 C 292.311 413.719,292.543 413.420,292.324 413.155 C 292.149 412.944,292.102 412.676,292.220 412.558 C 292.338 412.440,292.645 412.604,292.902 412.922 C 293.319 413.437,293.329 413.416,292.993 412.724 C 292.785 412.297,292.707 411.709,292.819 411.417 C 292.931 411.125,292.830 410.751,292.595 410.585 C 292.254 410.344,292.252 410.248,292.585 410.113 C 293.046 409.926,292.825 409.333,292.294 409.333 C 292.111 409.333,292.053 409.483,292.167 409.667 C 292.280 409.850,292.144 410.000,291.863 410.000 C 291.567 410.000,291.428 409.807,291.531 409.540 C 291.645 409.242,291.329 408.947,290.637 408.706 C 289.374 408.266,289.499 408.279,289.222 408.556 M298.692 408.800 L 297.885 409.252 298.609 409.482 C 299.522 409.771,300.745 409.402,300.574 408.888 C 300.385 408.321,299.614 408.284,298.692 408.800 M300.167 409.000 C 300.053 409.183,299.632 409.323,299.230 409.310 C 298.526 409.287,298.524 409.276,299.167 409.000 C 300.084 408.606,300.410 408.606,300.167 409.000 M296.271 409.846 C 295.599 410.211,295.141 410.249,294.438 409.998 C 293.615 409.704,293.571 409.718,294.083 410.118 C 294.848 410.715,294.821 411.000,294.000 411.000 C 293.524 411.000,293.333 411.222,293.333 411.778 C 293.333 412.822,293.623 413.047,294.419 412.621 C 294.867 412.381,295.320 412.372,295.808 412.594 C 296.640 412.974,297.649 412.436,297.414 411.739 C 297.335 411.503,297.442 411.104,297.651 410.852 C 297.917 410.531,297.925 410.326,297.677 410.173 C 297.482 410.053,297.409 409.814,297.514 409.644 C 297.786 409.204,297.313 409.281,296.271 409.846 M323.234 410.467 C 323.564 410.908,323.881 411.222,323.940 411.166 C 324.115 410.999,323.195 409.667,322.904 409.667 C 322.756 409.667,322.905 410.027,323.234 410.467 M263.782 412.202 C 263.654 412.549,263.388 412.944,263.191 413.078 C 262.948 413.245,262.963 413.325,263.238 413.328 C 263.696 413.334,264.487 412.043,264.202 411.757 C 264.099 411.655,263.911 411.855,263.782 412.202 M298.500 413.002 L 299.167 413.755 298.333 413.515 C 297.686 413.328,297.785 413.474,298.776 414.167 C 299.478 414.658,300.140 414.971,300.248 414.863 C 300.356 414.755,300.269 414.667,300.056 414.667 C 299.842 414.667,299.667 414.501,299.667 414.298 C 299.667 414.086,299.911 414.022,300.240 414.149 C 300.988 414.436,300.767 414.230,299.158 413.144 C 297.978 412.347,297.906 412.332,298.500 413.002 M290.000 417.674 C 290.000 417.853,290.225 418.000,290.500 418.000 C 290.775 418.000,291.000 418.150,291.000 418.333 C 291.000 418.517,291.150 418.667,291.333 418.667 C 291.964 418.667,291.666 418.107,290.833 417.727 C 290.326 417.496,290.000 417.475,290.000 417.674 M289.361 418.455 C 290.033 419.043,291.127 419.394,290.709 418.888 C 290.458 418.583,290.020 418.333,289.737 418.333 C 289.454 418.333,289.285 418.388,289.361 418.455 M296.338 419.039 C 295.882 419.221,295.215 419.293,294.855 419.199 C 294.496 419.105,294.016 419.182,293.789 419.370 C 293.504 419.606,293.153 419.594,292.659 419.329 C 292.265 419.119,291.843 419.054,291.721 419.185 C 291.600 419.317,291.696 419.494,291.935 419.580 C 292.175 419.665,292.654 420.039,293.000 420.410 C 293.361 420.798,293.850 421.001,294.148 420.887 C 294.868 420.610,294.796 420.853,293.917 421.674 C 293.129 422.410,293.918 422.345,294.893 421.594 C 295.140 421.403,295.694 421.503,296.393 421.864 C 297.396 422.383,297.457 422.385,297.043 421.885 C 296.780 421.568,296.734 421.333,296.935 421.333 C 297.127 421.333,297.505 420.892,297.774 420.352 C 298.236 419.426,298.229 419.393,297.653 419.752 C 297.318 419.962,297.104 420.232,297.178 420.352 C 297.252 420.472,296.943 420.500,296.490 420.413 C 296.037 420.326,295.667 420.128,295.667 419.972 C 295.667 419.815,295.854 419.760,296.084 419.848 C 296.314 419.936,296.690 419.706,296.920 419.337 C 297.151 418.968,297.300 418.676,297.253 418.688 C 297.205 418.699,296.794 418.858,296.338 419.039 M291.047 422.340 C 289.001 423.684,288.922 423.851,290.750 422.967 C 291.621 422.545,292.333 422.072,292.333 421.914 C 292.333 421.756,292.507 421.734,292.718 421.865 C 292.957 422.013,293.013 421.957,292.865 421.718 C 292.734 421.507,292.599 421.345,292.564 421.359 C 292.529 421.374,291.846 421.815,291.047 422.340 M299.000 422.500 C 299.000 422.822,298.832 422.954,298.583 422.828 C 298.354 422.711,298.525 422.931,298.964 423.316 C 299.402 423.701,299.848 423.930,299.954 423.824 C 300.060 423.717,299.945 423.505,299.698 423.352 C 299.450 423.200,299.345 422.918,299.463 422.727 C 299.581 422.536,299.525 422.285,299.339 422.170 C 299.152 422.055,299.000 422.203,299.000 422.500 M244.000 436.833 C 243.764 437.117,243.647 437.424,243.738 437.516 C 243.830 437.608,244.098 437.451,244.333 437.167 C 244.569 436.883,244.687 436.576,244.595 436.484 C 244.503 436.392,244.236 436.549,244.000 436.833 M236.435 444.197 L 235.500 445.061 236.583 444.341 C 237.576 443.682,237.899 443.333,237.519 443.333 C 237.437 443.333,236.950 443.722,236.435 444.197 M396.333 444.778 C 396.333 444.864,396.817 445.104,397.409 445.310 C 398.001 445.516,398.338 445.548,398.159 445.380 C 397.779 445.025,396.333 444.548,396.333 444.778 M347.171 447.874 C 346.894 448.538,346.667 449.214,346.667 449.375 C 346.667 449.537,346.224 451.056,345.683 452.751 C 341.588 465.588,341.629 465.403,342.483 467.295 L 343.101 468.667 359.229 468.667 C 374.490 468.667,375.339 468.635,375.033 468.083 C 374.707 467.496,366.976 456.808,366.398 456.144 C 366.227 455.949,365.165 454.433,364.038 452.776 L 361.989 449.764 359.578 449.555 C 356.866 449.321,351.199 447.959,349.692 447.180 C 348.207 446.412,347.727 446.544,347.171 447.874 M216.750 449.896 C 217.071 449.980,217.596 449.980,217.917 449.896 C 218.237 449.813,217.975 449.744,217.333 449.744 C 216.692 449.744,216.429 449.813,216.750 449.896 M210.250 450.235 C 210.662 450.315,211.338 450.315,211.750 450.235 C 212.162 450.156,211.825 450.091,211.000 450.091 C 210.175 450.091,209.838 450.156,210.250 450.235 M242.000 452.022 C 238.788 454.205,232.865 456.381,228.396 457.020 L 225.626 457.416 222.211 462.625 C 220.333 465.489,218.683 468.021,218.545 468.250 C 218.346 468.581,221.459 468.667,233.676 468.667 L 249.059 468.667 248.835 467.250 C 247.873 461.150,244.691 450.996,243.743 451.001 C 243.609 451.002,242.825 451.462,242.000 452.022 M398.916 458.055 C 398.412 458.422,398.000 458.926,398.000 459.176 C 398.000 459.450,398.421 459.244,399.064 458.657 C 400.325 457.506,400.225 457.102,398.916 458.055 M178.163 459.964 C 177.866 460.737,178.251 460.780,179.149 460.073 L 180.000 459.404 179.171 459.452 C 178.714 459.478,178.261 459.709,178.163 459.964 M396.471 460.164 C 396.172 460.621,395.814 460.924,395.675 460.838 C 395.536 460.753,395.164 460.967,394.849 461.316 C 394.402 461.810,394.382 461.934,394.755 461.879 C 395.364 461.790,397.140 460.262,397.250 459.733 C 397.384 459.089,397.056 459.271,396.471 460.164 M397.869 460.861 C 397.533 461.737,397.640 465.667,398.000 465.667 C 398.194 465.667,398.333 464.556,398.333 463.000 C 398.333 460.315,398.241 459.891,397.869 460.861 M399.348 462.973 C 399.099 463.438,399.118 463.659,399.419 463.781 C 399.730 463.907,399.708 464.045,399.333 464.333 C 398.889 464.675,398.889 464.702,399.333 464.581 C 399.644 464.496,399.833 464.044,399.833 463.389 C 399.833 462.153,399.801 462.126,399.348 462.973 M181.567 467.148 C 179.689 468.263,179.363 468.668,180.350 468.662 C 181.286 468.656,181.528 468.506,182.641 467.247 C 183.605 466.158,183.285 466.128,181.567 467.148 M308.421 470.239 C 308.928 470.316,309.678 470.314,310.088 470.235 C 310.498 470.156,310.083 470.093,309.167 470.095 C 308.250 470.098,307.915 470.163,308.421 470.239 " stroke="none" fill="#555560" fill-rule="evenodd"></path></g></svg>